<svg xmlns="http://www.w3.org/2000/svg" viewBox="0 0 33 30">
<path d="M32.6 21.6c-.6-.7-1.8-1.7-1.8-5 0-2.4-1.6-4.3-3.8-4.9-.3-1.6-2.4-1.6-2.7 0-2.2.6-3.9 2.5-3.9 4.9 0 3.3-1.2 4.3-1.8 5-.2.2-.3.5-.3.7 0 .5.4 1 1 1h12.5c.9 0 1.4-1.1.8-1.7zM20.1 29.2h-17c-1.7 0-3.1-1.4-3.1-3.1v-1.9c0-4.3 3.7-7.7 8-7.4 2.6 1.3 6 1.4 8.6.1 0 0 .1-.1.1 0 0 2.4-.5 2.8-1.2 3.5-2 2.1-.7 5.9 2.4 5.7h.8c.1 0 .1.3.1.4.1 1.1.6 1.8 1.3 2.7M25.6 29.2c1.7 0 3-1.3 3-2.9h-6c0 1.5 1.3 2.9 3 2.9zM12.3 14.2c3.9 0 7.1-3.2 7.1-7.1-.3-9.5-14-9.5-14.3 0 0 3.9 3.2 7.1 7.2 7.1z"/>
</svg>
