<svg xmlns="http://www.w3.org/2000/svg" viewBox="0 0 33 30">
<path d="M23.1 29.2h1.5c.8 0 1.5-.7 1.5-1.5v-5.3h5.1c.8 0 1.5-.7 1.5-1.5v-1.5c0-.8-.7-1.5-1.5-1.5h-5.1v-5c0-.8-.7-1.5-1.5-1.5h-1.5c-.8 0-1.5.7-1.5 1.5v5h-4.7c-.8 0-1.5.7-1.5 1.5v1.5c0 .8.7 1.5 1.5 1.5h4.7v5.3c0 .8.6 1.5 1.5 1.5zM18.4 29.1v-3.9c0-.1-.1-.1-.1-.1h-2.5c-2.7 0-3.7-2.1-3.7-4V18c0-.2-.2-.2-.2-.2-1.3 0-2.6-.4-4-1h-.5c-4.1 0-7.4 3.3-7.4 7.4v1.9c0 1.7 1.4 3.1 3.1 3.1h15.2c0 .1.1 0 .1-.1z"/>
  <circle cx="12.5" cy="7.1" r="7.1"/>
</svg>
