<svg xmlns="http://www.w3.org/2000/svg" viewBox="0 0 33 30">
<path d="M15.2 29.3H3.1c-1.7 0-3.1-1.4-3.1-3.1v-1.8C0 20.3 3.3 17 7.4 17h.5c1.3.6 2.8 1 4.4 1 .2 0 .6 0 1.2-.2 0 0 .3 0 .1.3-.8 1.5-1.1 3.2-1.1 4.8 0 2.5 1 4.7 2.7 6.3 0 0 .2.1 0 .1zM12.3 14.3c4 0 7.2-3.2 7.2-7.2S16.3 0 12.3 0 5.1 3.2 5.1 7.2s3.2 7.1 7.2 7.1zM32.4 17.1 26 11.6c-.6-.5-1.5-.1-1.5.7V15.1c-4.8.5-8.4 2.2-8.4 7.6 0 2.6 1.5 5.1 3.2 6.4.5.4 1.3-.1 1.1-.8-1.4-5 .1-7 4.1-7.5v2.4c0 .7.9 1.1 1.5.7l6.4-5.5c.4-.3.4-1 0-1.3z"/>
</svg>
